PathFileType	4	(X/Y/Z)	D:\TRACE\v60_Jaco2_6-2-23\JustArmDRS_Motion2_2-v60.trc
DataRate	CameraRate	NumFrames	NumMarkers	Units	OrigDataRate	OrigDataStartFrame	OrigNumFrames
100.00	100.00	      35	9	mm	100.00	876	      7005
Frame#	Time	front left toe			Front right toe			aft left toe			aft right toe			Arm			FL body			FR body			AL Body			AR Body			
		X1	Y1	Z1	X2	Y2	Z2	X3	Y3	Z3	X4	Y4	Z4	X5	Y5	Z5	X6	Y6	Z6	X7	Y7	Z7	X8	Y8	Z8	X9	Y9	Z9	

876	8.750	-151.05518	37.49718	-151.78119	256.50714	37.00323	-196.29837	-85.06579	-17.44692	448.77679	317.90671	-16.28328	437.04794	92.86201	1216.78918	-209.32957	-30.47780	591.18555	-290.38565	129.30191	585.65295	-308.70587	74.83114	558.14038	648.71478	232.41823	547.42426	632.56049	
877	8.760	-151.22975	37.64200	-151.67537	256.27161	37.15178	-196.08850	-85.31310	-17.62812	448.77505	317.82062	-16.56864	437.14273	93.22382	1216.92896	-208.23294	-30.49374	591.75525	-290.10196	129.50327	586.17090	-308.27838	75.24711	557.60986	649.33710	231.96213	546.97198	633.69843	
878	8.770	-151.70294	37.92469	-151.58487	255.95030	37.31288	-196.04930	-85.65953	-18.04651	449.00186	317.64236	-16.93840	437.35107	93.60689	1217.21265	-207.42822	-30.03445	592.32581	-289.48184	129.18454	586.61420	-307.58948	75.87036	557.06537	649.51178	231.93742	546.04431	633.40924	
879	8.780	-152.20981	38.14644	-151.48946	255.59061	37.39251	-195.79771	-86.10497	-18.24463	449.12943	317.50760	-17.19812	437.49509	93.73686	1217.68274	-206.42577	-29.64867	592.62616	-288.82550	128.85382	586.93317	-307.33685	75.79077	556.45483	650.06567	232.33055	545.92444	634.96716	
880	8.790	-152.60202	38.25386	-151.36290	255.25674	37.66121	-195.56735	-86.41051	-18.45332	449.16739	317.12851	-17.47944	437.59573	93.84509	1217.94263	-205.45540	-29.85017	593.05206	-288.47778	129.65060	587.42487	-307.15341	76.10782	555.89771	651.16620	232.52394	544.86481	634.32587	
881	8.800	-153.05585	38.43828	-151.27126	254.77261	37.78966	-195.47717	-86.84140	-18.75403	449.23166	316.32437	-17.97576	437.75720	93.64994	1218.03613	-204.75928	-29.92662	593.32709	-288.06909	129.71867	587.89203	-306.51962	76.25439	555.15405	650.86456	232.55714	544.24133	634.56403	
882	8.810	-153.41956	38.61525	-151.19220	254.38167	37.90342	-195.46303	-87.22563	-19.15860	449.19821	315.84058	-18.36766	437.90945	93.78095	1218.22021	-203.91243	-29.82770	593.70081	-287.77789	129.33461	588.27460	-305.82834	76.30808	554.41339	651.26593	232.61691	543.62268	634.87738	
883	8.820	-153.61089	38.66486	-151.06310	253.81384	38.07831	-195.45439	-87.41114	-19.60248	449.23978	315.55420	-18.62136	438.01282	94.03238	1218.45361	-202.81007	-29.86905	594.23425	-287.48895	129.31097	588.53235	-305.59518	76.16888	553.98553	651.64398	232.89540	543.02032	636.12433	
884	8.830	-154.00856	38.77032	-151.02133	253.43874	38.18727	-195.33116	-87.67114	-20.10235	449.32391	315.26944	-18.93028	438.07056	93.76113	1218.86414	-202.38484	-29.88519	594.56628	-287.03500	129.77803	588.79639	-305.50107	76.48743	553.14014	651.64703	232.97943	542.63995	636.53381	
885	8.840	-154.87691	39.06704	-150.81609	252.93195	38.20116	-195.23785	-88.06137	-20.39334	449.71677	314.79895	-19.32665	438.04657	93.90098	1218.97986	-201.47963	-29.71671	594.60193	-286.62033	129.50340	588.91010	-305.59250	76.46940	552.66254	651.84430	232.82036	541.94769	635.85858	
886	8.850	-155.54565	39.30563	-150.63818	252.50598	38.21538	-195.08069	-88.69149	-20.45556	449.79395	314.28946	-19.65122	438.03339	94.03793	1219.27014	-200.78546	-30.11302	594.86676	-286.19012	129.38684	589.29950	-305.11008	76.58829	552.40546	653.04901	232.86794	541.20538	636.17609	
887	8.860	-155.95067	39.43911	-150.46191	252.02463	38.18102	-194.96150	-89.03906	-20.56450	449.94653	313.69278	-19.84577	437.99582	94.03734	1219.41577	-200.31924	-30.40059	595.04028	-285.76849	128.96651	589.41168	-304.11603	76.21263	552.12244	652.76678	232.72112	540.88019	636.35999	
888	8.870	-156.19119	39.51736	-150.44690	251.26726	38.31236	-194.93489	-89.29141	-20.63150	449.99268	313.22879	-19.98009	438.10696	93.90472	1219.61194	-199.76492	-30.52509	595.33569	-285.47873	128.49007	589.72687	-303.80414	76.10152	551.69989	653.14410	232.88393	541.03040	637.62750	
889	8.880	-156.44621	39.48939	-150.48601	250.72285	38.44830	-195.02397	-89.62788	-21.06922	450.17792	312.61310	-20.18653	438.20255	93.77863	1219.73230	-199.39755	-30.55674	595.67267	-285.29257	128.55569	590.17413	-303.82690	76.14203	551.34113	653.37970	232.85936	540.79102	637.94611	
890	8.890	-157.27777	39.71832	-150.42014	250.10858	38.42274	-194.95258	-90.17980	-21.13129	450.14392	312.12692	-20.25663	438.17838	93.55338	1219.91846	-198.79601	-30.99969	596.01892	-284.92026	127.73940	590.21600	-303.49969	75.89539	551.09985	653.67212	232.68060	540.54602	638.11029	
891	8.900	-158.03293	39.82202	-150.21048	249.78181	38.59611	-194.81668	-90.66400	-21.19976	450.11142	311.39276	-20.33509	438.19577	93.47276	1220.12976	-198.92229	-31.38650	596.20471	-284.65939	127.65246	590.44781	-303.66641	76.05367	550.89337	653.58270	232.35973	540.33752	638.27734	
892	8.910	-158.61545	39.92908	-150.20177	249.20413	38.72268	-194.78450	-90.95592	-21.45337	450.24887	310.69064	-20.42617	438.13470	93.24832	1220.25513	-198.70625	-32.01254	596.46484	-284.32816	127.10426	590.56897	-303.47595	75.79444	550.66797	653.71539	230.73698	538.92358	636.42249	
893	8.920	-159.12529	39.81423	-150.14812	248.42674	38.72364	-194.84790	-92.98676	-20.78553	450.04031	310.17026	-20.30789	438.18301	92.97608	1220.50244	-198.47855	-32.27259	596.60968	-284.11642	126.71496	590.77661	-303.28827	75.32272	550.41827	654.11877	231.86429	539.65057	638.48712	
894	8.930	-159.69957	39.85752	-150.27554	247.69154	38.50732	-194.90665	-93.36211	-20.86733	449.98721	309.60553	-20.27211	438.19244	92.67934	1220.62683	-198.30399	-32.66789	596.83881	-283.98816	126.28835	590.95081	-303.10562	74.84599	550.22925	653.98383	231.80626	539.09509	638.66296	
895	8.940	-160.69365	39.93859	-150.17183	246.93333	38.32010	-194.79601	-94.40462	-20.65419	449.80844	308.82932	-20.46231	438.18570	92.57276	1220.66101	-198.10065	-33.53531	597.13824	-283.79416	124.95367	591.04950	-302.43222	74.57375	549.77240	654.35022	231.59401	538.87299	638.84351	
896	8.950	-161.47430	39.96134	-150.05655	246.34442	38.30550	-194.67834	-95.05673	-20.81927	449.80966	307.94562	-20.71247	438.18774	92.38921	1220.65417	-197.87201	-34.29969	597.29456	-283.66104	124.60326	591.32745	-302.78644	74.18742	549.54767	654.48999	230.73723	538.23199	637.82513	
897	8.960	-161.72937	39.78138	-150.11575	245.59753	38.30551	-194.76559	-95.79962	-20.68290	449.99579	307.45816	-20.62428	438.20850	92.09056	1220.83936	-197.47588	-34.79043	597.45264	-283.75879	124.15940	591.69073	-303.05655	73.82571	549.50330	654.52960	230.43741	538.05286	637.87616	
898	8.970	-162.24409	39.71539	-150.04755	245.04817	38.38194	-194.77777	-96.08137	-20.74478	450.11847	307.12796	-20.40667	438.21448	92.05585	1221.20386	-197.45026	-35.61935	597.77844	-283.54868	123.68751	591.78802	-302.93048	73.67198	549.49780	654.63019	228.78351	537.37952	637.10956	
899	8.980	-163.14276	39.77670	-150.09572	244.09685	38.31569	-194.86656	-96.85515	-20.63866	450.10114	306.38760	-20.35264	438.06384	91.64301	1221.50696	-197.49625	-36.15386	597.95056	-283.38187	123.17735	591.88464	-302.64713	73.26750	549.48096	654.74103	228.50061	537.38861	637.08380	
900	8.990	-164.23834	39.78139	-150.19037	243.35190	38.11850	-194.95218	-97.68446	-20.46150	450.22476	305.27966	-20.26717	438.03217	91.07552	1221.71057	-197.76622	-36.80759	598.18701	-283.21283	122.50429	592.25952	-302.79175	72.58938	549.47656	654.89453	228.16679	537.45258	637.14886	
901	9.000	-164.84724	39.72112	-150.35066	242.62770	38.14685	-195.13788	-98.48496	-20.08439	450.30478	304.58878	-20.24479	438.07355	90.56157	1221.70654	-198.03952	-37.20713	598.38818	-283.18475	121.16534	592.11566	-302.13162	72.12446	549.40613	654.97449	227.38339	537.39923	637.11237	
902	9.010	-165.40881	39.54473	-150.29208	241.94638	38.28160	-195.12251	-99.25953	-20.10979	450.27783	303.79544	-20.07127	438.21112	90.39604	1221.98486	-198.10243	-38.11937	598.82294	-282.99902	120.67907	592.51202	-302.51300	71.80406	549.36084	654.65778	226.89546	537.39044	637.12152	
903	9.020	-166.36833	39.67160	-150.28177	241.21164	38.15168	-195.25598	-100.16064	-20.01780	450.08112	302.90649	-20.01207	438.09464	89.60718	1222.15063	-198.19197	-38.56118	599.01263	-282.82617	120.29630	593.05865	-302.79300	71.28555	549.27063	654.68604	226.25008	537.31433	637.12207	
904	9.030	-167.21005	39.60106	-150.32138	240.20213	37.88599	-195.44052	-101.04385	-19.73361	449.97375	302.27185	-19.60987	437.92426	88.72661	1222.54321	-198.31947	-39.35202	599.37732	-282.89053	119.79983	593.31860	-302.87064	70.74354	549.10541	654.61676	225.77829	537.05322	637.04333	
905	9.040	-167.68600	39.45358	-150.51799	239.47908	37.80634	-195.40237	-101.86092	-19.42399	449.95734	301.77515	-19.35291	438.01794	88.41965	1222.70679	-198.24783	-40.35488	599.75226	-283.06714	118.79338	593.57788	-302.89523	70.25030	549.03406	654.53571	226.78096	538.03601	639.36249	
906	9.050	-168.62296	39.14374	-150.69147	238.78098	37.68439	-195.45204	-102.40909	-19.19897	450.01794	300.59885	-19.39990	437.84390	87.88450	1222.92151	-197.98622	-41.05924	599.86475	-283.02887	117.91974	593.64545	-302.12714	69.50803	548.85217	654.36108	226.13071	537.92639	639.21161	
907	9.060	-169.69676	39.16982	-150.80313	237.67244	37.37927	-195.71112	-103.11610	-19.02428	450.01727	299.80780	-19.14113	437.93835	87.24224	1223.06335	-197.64102	-42.04770	600.36304	-283.07349	117.33650	594.22742	-302.53244	68.57935	548.71307	654.59613	225.22034	537.63965	638.62604	
908	9.070	-170.63261	39.19564	-150.95784	236.95932	37.22701	-195.72011	-104.21995	-18.59332	449.92767	298.98602	-18.76591	437.80426	86.63454	1223.29773	-197.46648	-42.53638	600.52393	-283.10315	116.51090	594.50549	-302.71677	67.88642	548.63940	654.48370	224.66290	537.52679	638.50842	
909	9.080	-171.23671	39.03116	-150.96942	235.90468	37.01071	-195.90913	-105.18246	-18.09433	449.95139	297.74142	-18.58110	437.68805	85.71385	1223.81421	-197.47800	-43.65469	600.83160	-283.38419	115.75817	594.67291	-302.82556	67.24978	548.47955	654.35925	224.11430	537.51624	638.47601	
910	9.090	-172.26547	38.69738	-151.16206	234.74443	36.79709	-196.08522	-105.93337	-17.93143	449.69382	297.30478	-18.08249	437.64206	84.57604	1224.12048	-197.40381	-44.88087	601.25275	-283.40543	114.53996	594.96741	-302.95322	66.54134	548.30548	654.24475	223.24586	537.22748	638.19781	
